<svg xmlns="http://www.w3.org/2000/svg" viewBox="0 0 800 450">
  <defs>
    <linearGradient id="bg3" x1="0%" y1="0%" x2="100%" y2="100%">
      <stop offset="0%" style="stop-color:#1e3a5f"/>
      <stop offset="50%" style="stop-color:#2d5a8e"/>
      <stop offset="100%" style="stop-color:#1e3a5f"/>
    </linearGradient>
  </defs>
  <rect width="800" height="450" fill="url(#bg3)"/>
  <path d="M300 200 Q350 140 400 160 Q430 120 480 150 Q530 130 540 170 Q580 160 570 200 Q590 220 560 230 L280 230 Q250 220 260 200 Q250 180 300 200Z" fill="white" opacity="0.2"/>
  <rect x="320" y="260" width="40" height="60" rx="4" fill="none" stroke="white" stroke-width="1.5" opacity="0.6"/>
  <rect x="380" y="260" width="40" height="60" rx="4" fill="none" stroke="#e8913a" stroke-width="1.5" opacity="0.6"/>
  <rect x="440" y="260" width="40" height="60" rx="4" fill="none" stroke="#2ecc71" stroke-width="1.5" opacity="0.6"/>
  <line x1="340" y1="250" x2="340" y2="230" stroke="white" stroke-width="1" stroke-dasharray="4,3" opacity="0.5"/>
  <line x1="400" y1="250" x2="400" y2="230" stroke="white" stroke-width="1" stroke-dasharray="4,3" opacity="0.5"/>
  <line x1="460" y1="250" x2="460" y2="230" stroke="white" stroke-width="1" stroke-dasharray="4,3" opacity="0.5"/>
  <text x="400" y="380" font-family="Inter, system-ui, sans-serif" font-size="24" fill="white" text-anchor="middle" font-weight="600">Cloud Architecture</text>
</svg>